{"title":"HimmatWala 2013 1CD HDScam Xvid (IcTv) - Hindi","uid":8314398,"size":730410828,"categoryP":"video","categoryS":"movies","magnet":"?xt=urn:btih:bc45fcf582bf9467601e9d121618b7d2fbf9124f&amp;dn=HimmatWala+2013+1CD+HDScam+Xvid+%28IcTv%29+-+Hindi&amp;tr=udp%3A%2F%2Ftracker.openbittorrent.com%3A80&amp;tr=udp%3A%2F%2Fopen.demonii.com%3A1337&amp;tr=udp%3A%2F%2Ftracker.coppersurfer.tk%3A6969&amp;tr=udp%3A%2F%2Fexodus.desync.com%3A6969","seeders":1,"leechers":0,"uploader":"SJonam","files":1,"time":1364551279,"description":" &lt;a href=&quot;http://desibbrg.org/images/66952052392581364616.gif&quot; rel=&quot;nofollow&quot; target=&quot;_NEW&quot;&gt;http://desibbrg.org/images/66952052392581364616.gif&lt;/a&gt; &lt;a href=&quot;\nhttp://desibbrg.org/images/97111847590385599102.jpg&quot; rel=&quot;nofollow&quot; target=&quot;_NEW&quot;&gt;\nhttp://desibbrg.org/images/97111847590385599102.jpg&lt;/a&gt; &lt;a href=&quot;\nhttp://desibbrg.org/images/37562572356003015555.jpg&quot; rel=&quot;nofollow&quot; target=&quot;_NEW&quot;&gt;\nhttp://desibbrg.org/images/37562572356003015555.jpg&lt;/a&gt; &lt;a href=&quot;\nhttp://desibbrg.org/images/46714942655827734802.jpg&quot; rel=&quot;nofollow&quot; target=&quot;_NEW&quot;&gt;\nhttp://desibbrg.org/images/46714942655827734802.jpg&lt;/a&gt; &lt;a href=&quot;\nhttp://desibbrg.org/images/84054602273932654641.jpg&quot; rel=&quot;nofollow&quot; target=&quot;_NEW&quot;&gt;\nhttp://desibbrg.org/images/84054602273932654641.jpg&lt;/a&gt;\n\nMedia Info - \nVideo\nID : 0\nFormat : MPEG-4 Visual\nFormat profile : Advanced Simple@L5\nFormat settings, BVOP : 2\nFormat settings, QPel : No\nFormat settings, GMC : No warppoints\nFormat settings, Matrix : Default (H.263)\nCodec ID : XVID\nCodec ID/Hint : XviD\nDuration : 2h 11mn\nBit rate : 640 Kbps\nWidth : 608 pixels\nHeight : 256 pixels\nDisplay aspect ratio : 2.40:1\nFrame rate : 25.000 fps\nColor space : YUV\nChroma subsampling : 4:2:0\nBit depth : 8 bits\nScan type : Progressive\nCompression mode : Lossy\nBits/(Pixel*Frame) : 0.164\nStream size : 600 MiB (86%)\nWriting library : XviD 1.2.1 (UTC 2008-12-04)\n\nAudio\nID : 1\nFormat : MPEG Audio\nFormat version : Version 1\nFormat profile : Layer 3\nMode : Joint stereo\nMode extension : MS Stereo\nCodec ID : 55\nCodec ID/Hint : MP3\nDuration : 2h 11mn\nBit rate mode : Variable\nBit rate : 96.0 Kbps\nChannel(s) : 2 channels\nSampling rate : 32.0 KHz\nCompression mode : Lossy\nStream size : 87.2 MiB (13%)\nAlignment : Aligned on interleaves\nInterleave, duration : 36 ms (0.90 video frame)\nInterleave, preload duration : 167 ms\nTitle : VTS_01_1 Tc0 L2 2ch 48 128 DELAY 0ms\nWriting library : LAME3.99r\nEncoding settings : -m j -V 4 -q 2 -lowpass 15.1 --abr 96\n\n\nRipper : Master Mind\n\nSeeding 24x7... Extreme Seeding...\n\n\nEnjoy!\n","torrent":{"xt":"urn:btih:bc45fcf582bf9467601e9d121618b7d2fbf9124f","amp;dn":"HimmatWala+2013+1CD+HDScam+Xvid+%28IcTv%29+-+Hindi","amp;tr":["udp%3A%2F%2Ftracker.openbittorrent.com%3A80","udp%3A%2F%2Fopen.demonii.com%3A1337","udp%3A%2F%2Ftracker.coppersurfer.tk%3A6969","udp%3A%2F%2Fexodus.desync.com%3A6969"],"infoHash":"bc45fcf582bf9467601e9d121618b7d2fbf9124f","infoHashBuffer":{"type":"Buffer","data":[188,69,252,245,130,191,148,103,96,30,157,18,22,24,183,210,251,249,18,79]},"announce":[],"urlList":[]}}